<svg xmlns="http://www.w3.org/2000/svg" width="64" height="64"><path d="M0 0h64v64H0z" fill="rgba(0,0,0,0)"/><path data-name="Sustracción 3" d="M20 26.664h-4c-4.41 0-8-3.189-8-7.109v-7.11c0-3.924 3.59-7.115 8-7.115h32c4.41 0 8 3.193 8 7.117v7.107c0 3.92-3.59 7.109-8 7.109h-4v-4.74h4a2.534 2.534 0 002.666-2.369v-7.109A2.539 2.539 0 0048 10.068H16a2.539 2.539 0 00-2.666 2.377v7.107A2.534 2.534 0 0016 21.922h4v4.742z" fill="currentColor"/><g data-name="Grupo 67860" transform="translate(19.552 16.006)" fill="none" stroke="currentColor" stroke-linecap="round" stroke-linejoin="round" stroke-width="5"><rect data-name="Rectángulo 2301" width="24.889" height="17.778" rx="2" transform="translate(0 14.219)"/><circle data-name="Elipse 373" cx="1.778" cy="1.778" r="1.778" transform="translate(10.667 21.333)"/><path data-name="Trazado 7863" d="M5.333 14.222V7.111a7.111 7.111 0 1114.222 0v7.111"/></g><path data-name="Sustracción 2" d="M47.999 58.664h-32c-4.41 0-8-3.189-8-7.109v-7.107c0-3.489 2.8-6.44 6.67-7.018v4.959a2.351 2.351 0 00-1.336 2.059v7.107a2.534 2.534 0 002.666 2.369h32a2.534 2.534 0 002.666-2.369v-7.107a2.358 2.358 0 00-1.33-2.055V37.43c3.864.584 6.664 3.537 6.664 7.018v7.107c0 3.92-3.59 7.109-8 7.109z" fill="currentColor"/></svg>