<svg xmlns="http://www.w3.org/2000/svg" width="90" height="150"><defs><clipPath id="prefix__a"><rect width="90" height="150" rx="8" fill="#fbfbfb"/></clipPath></defs><rect data-name="background" width="90" height="150" rx="8" fill="#f5f5f5"/><g clip-path="url(#prefix__a)"><g data-name="-----skeleton-text-regular"><rect data-name="//---skeleton-text-regular" width="150" height="1" rx=".5" fill="#d9d9d9" transform="rotate(90 -2.5 23)"/></g><g data-name="Grupo 67608"><g data-name="-----skeleton-steps-view" transform="translate(17 135)"><rect data-name="background" width="50" height="38" rx="4" transform="translate(11)" fill="#ff4081"/><g data-name="-----skeleton-icon"><rect data-name="//---skeleton-icon" width="12" height="16" rx="3" fill="#fbfbfb" transform="translate(30 5)"/></g><g data-name="-----skeleton-text-regular"><rect data-name="//---skeleton-text-regular" width="32" height="5" rx="2.5" fill="#fbfbfb" transform="translate(20 28)"/></g><g data-name="-----skeleton-text-regular"><rect data-name="//---skeleton-text-regular" width="6" height="6" rx="3" fill="#d9d9d9" transform="translate(0 16)"/></g></g><g data-name="-----skeleton-steps-view" transform="translate(17 92)"><rect data-name="background" width="50" height="38" rx="4" transform="translate(11)" fill="#ff64cb"/><g data-name="-----skeleton-icon"><rect data-name="//---skeleton-icon" width="12" height="16" rx="3" fill="#fbfbfb" transform="translate(30 5)"/></g><g data-name="-----skeleton-text-regular"><rect data-name="//---skeleton-text-regular" width="32" height="5" rx="2.5" fill="#fbfbfb" transform="translate(20 28)"/></g><g data-name="-----skeleton-text-regular"><rect data-name="//---skeleton-text-regular" width="6" height="6" rx="3" fill="#d9d9d9" transform="translate(0 16)"/></g></g><g data-name="-----skeleton-steps-view" transform="translate(17 49)"><rect data-name="background" width="50" height="38" rx="4" transform="translate(11)" fill="#d628b9"/><g data-name="-----skeleton-icon"><rect data-name="//---skeleton-icon" width="12" height="16" rx="3" fill="#fbfbfb" transform="translate(30 5)"/></g><g data-name="-----skeleton-text-regular"><rect data-name="//---skeleton-text-regular" width="32" height="5" rx="2.5" fill="#fbfbfb" transform="translate(20 28)"/></g><g data-name="-----skeleton-text-regular"><rect data-name="//---skeleton-text-regular" width="6" height="6" rx="3" fill="#d9d9d9" transform="translate(0 16)"/></g></g><g data-name="-----skeleton-steps-view" transform="translate(17 6)"><rect data-name="background" width="50" height="38" rx="4" transform="translate(11)" fill="#9c27b0"/><g data-name="-----skeleton-icon"><rect data-name="//---skeleton-icon" width="12" height="16" rx="3" fill="#fbfbfb" transform="translate(30 5)"/></g><g data-name="-----skeleton-text-regular"><rect data-name="//---skeleton-text-regular" width="32" height="5" rx="2.5" fill="#fbfbfb" transform="translate(20 28)"/></g><g data-name="-----skeleton-text-regular"><rect data-name="//---skeleton-text-regular" width="6" height="6" rx="3" fill="#d9d9d9" transform="translate(0 16)"/></g></g></g></g></svg>