<svg xmlns="http://www.w3.org/2000/svg" width="90" height="150"><defs><clipPath id="prefix__a"><rect width="90" height="150" rx="8" fill="#fbfbfb"/></clipPath></defs><rect data-name="background" width="90" height="150" rx="8" fill="#f5f5f5"/><g data-name="Grupo 67608" clip-path="url(#prefix__a)"><g data-name="-----skeleton-wall-view" transform="translate(5 130)"><rect data-name="background" width="80" height="60" rx="4" fill="#fbfbfb"/><path data-name="background" d="M4 0h72a4 4 0 014 4v36H0V4a4 4 0 014-4z" fill="#2395f0"/><g data-name="-----skeleton-icon"><rect data-name="//---skeleton-icon" width="12" height="16" rx="3" fill="#f5f5f5" transform="translate(34 12)"/></g><g data-name="-----skeleton-text-regular"><rect data-name="//---skeleton-text-regular" width="68" height="5" rx="2.5" fill="#f0f0f0" transform="translate(6 51)"/></g><g data-name="-----skeleton-text-regular"><rect data-name="//---skeleton-text-regular" width="19" height="5" rx="2.5" fill="#f0f0f0" transform="translate(6 43)"/></g></g><g data-name="-----skeleton-wall-view" transform="translate(5 68)"><rect data-name="background" width="80" height="60" rx="4" fill="#fbfbfb"/><path data-name="background" d="M4 0h72a4 4 0 014 4v36H0V4a4 4 0 014-4z" fill="#07a7f1"/><g data-name="-----skeleton-icon"><rect data-name="//---skeleton-icon" width="12" height="16" rx="3" fill="#f5f5f5" transform="translate(34 12)"/></g><g data-name="-----skeleton-text-regular"><rect data-name="//---skeleton-text-regular" width="68" height="5" rx="2.5" fill="#f0f0f0" transform="translate(6 51)"/></g><g data-name="-----skeleton-text-regular"><rect data-name="//---skeleton-text-regular" width="19" height="5" rx="2.5" fill="#f0f0f0" transform="translate(6 43)"/></g></g><g data-name="-----skeleton-wall-view" transform="translate(5 6)"><rect data-name="background" width="80" height="60" rx="4" fill="#fbfbfb"/><path data-name="background" d="M4 0h72a4 4 0 014 4v36H0V4a4 4 0 014-4z" fill="#00bcd5"/><g data-name="-----skeleton-icon"><rect data-name="//---skeleton-icon" width="12" height="16" rx="3" fill="#f5f5f5" transform="translate(34 12)"/></g><g data-name="-----skeleton-text-regular"><rect data-name="//---skeleton-text-regular" width="68" height="5" rx="2.5" fill="#f0f0f0" transform="translate(6 51)"/></g><g data-name="-----skeleton-text-regular"><rect data-name="//---skeleton-text-regular" width="19" height="5" rx="2.5" fill="#f0f0f0" transform="translate(6 43)"/></g></g></g></svg>