<svg xmlns="http://www.w3.org/2000/svg" width="90" height="150"><defs><clipPath id="prefix__a"><rect width="90" height="150" rx="8" fill="#fbfbfb"/></clipPath></defs><rect data-name="background" width="90" height="150" rx="8" fill="#f5f5f5"/><g data-name="Grupo 67608" clip-path="url(#prefix__a)"><g data-name="-----skeleton-wizard-view" transform="translate(79 6)"><rect data-name="background" width="70" height="136" rx="4" fill="#3f51b5"/><path data-name="Rectángulo 2185" d="M0 116h70v16a4 4 0 01-4 4H4a4 4 0 01-4-4v-16z" fill="#fff"/><ellipse data-name="Elipse 328" cx="35" cy="16.5" rx="35" ry="16.5" transform="translate(0 100)" fill="#fff"/><g data-name="-----skeleton-icon"><rect data-name="//---skeleton-icon" width="12" height="16" rx="3" fill="#f5f5f5" transform="translate(29 50)"/></g><g data-name="-----skeleton-text-regular"><rect data-name="//---skeleton-text-regular" width="58" height="5" rx="2.5" fill="#f0f0f0" transform="translate(6 119)" opacity=".58"/></g><g data-name="-----skeleton-text-regular"><rect data-name="//---skeleton-text-regular" width="9" height="5" rx="2.5" fill="#f0f0f0" transform="translate(31 109)"/></g><g data-name="Grupo 67615"><g data-name="-----skeleton-text-regular"><rect data-name="//---skeleton-text-regular" width="4" height="4" rx="2" fill="#f0f0f0" transform="translate(40 129)"/></g><g data-name="-----skeleton-text-regular"><rect data-name="//---skeleton-text-regular" width="4" height="4" rx="2" fill="#f0f0f0" transform="translate(33 129)"/></g><g data-name="-----skeleton-text-regular"><rect data-name="//---skeleton-text-regular" width="4" height="4" rx="2" fill="#f0f0f0" transform="translate(26 129)"/></g></g></g><g data-name="-----skeleton-wizard-view" transform="translate(5 6)"><rect data-name="background" width="70" height="136" rx="4" fill="#3863d8"/><path data-name="Rectángulo 2185" d="M0 116h70v16a4 4 0 01-4 4H4a4 4 0 01-4-4v-16z" fill="#fff"/><ellipse data-name="Elipse 328" cx="35" cy="16.5" rx="35" ry="16.5" transform="translate(0 100)" fill="#fff"/><g data-name="-----skeleton-icon"><rect data-name="//---skeleton-icon" width="12" height="16" rx="3" fill="#f5f5f5" transform="translate(29 50)"/></g><g data-name="-----skeleton-text-regular"><rect data-name="//---skeleton-text-regular" width="58" height="5" rx="2.5" fill="#f0f0f0" transform="translate(6 119)" opacity=".58"/></g><g data-name="-----skeleton-text-regular"><rect data-name="//---skeleton-text-regular" width="9" height="5" rx="2.5" fill="#f0f0f0" transform="translate(31 109)"/></g><g data-name="Grupo 67615"><g data-name="-----skeleton-text-regular"><rect data-name="//---skeleton-text-regular" width="4" height="4" rx="2" fill="#f0f0f0" transform="translate(40 129)"/></g><g data-name="-----skeleton-text-regular"><rect data-name="//---skeleton-text-regular" width="4" height="4" rx="2" fill="#f0f0f0" transform="translate(33 129)"/></g><g data-name="-----skeleton-text-regular"><rect data-name="//---skeleton-text-regular" width="4" height="4" rx="2" fill="#f0f0f0" transform="translate(26 129)"/></g></g></g></g></svg>