<svg xmlns="http://www.w3.org/2000/svg" width="90" height="150"><defs><clipPath id="prefix__a"><rect width="90" height="150" rx="8" fill="#fbfbfb"/></clipPath></defs><rect data-name="background" width="90" height="150" rx="8" fill="#f5f5f5"/><path d="M8 0h4v150H8a8 8 0 01-8-8V8a8 8 0 018-8z" fill="#d9d9d9"/><g data-name="Grupo 67608" clip-path="url(#prefix__a)"><g data-name="-----skeleton-art-view" transform="translate(16 110)"><rect data-name="background" width="70" height="47" rx="4" fill="#1abf7c"/><g data-name="-----skeleton-icon"><rect data-name="//---skeleton-icon" width="12" height="16" rx="3" fill="#fff" transform="translate(29 10)"/></g><g data-name="-----skeleton-text-regular"><rect data-name="//---skeleton-text-regular" width="42" height="5" rx="2.5" fill="#fff" transform="translate(14 36)"/></g></g><g data-name="-----skeleton-art-view" transform="translate(16 58)"><rect data-name="background" width="70" height="47" rx="4" fill="#8bd220"/><g data-name="-----skeleton-icon"><rect data-name="//---skeleton-icon" width="12" height="16" rx="3" fill="#fff" transform="translate(29 10)"/></g><g data-name="-----skeleton-text-regular"><rect data-name="//---skeleton-text-regular" width="42" height="5" rx="2.5" fill="#fff" transform="translate(14 36)"/></g></g><g data-name="-----skeleton-art-view" transform="translate(16 6)"><rect data-name="background" width="70" height="47" rx="4" fill="#cfdb39"/><g data-name="-----skeleton-icon"><rect data-name="//---skeleton-icon" width="12" height="16" rx="3" fill="#fff" transform="translate(29 10)"/></g><g data-name="-----skeleton-text-regular"><rect data-name="//---skeleton-text-regular" width="42" height="5" rx="2.5" fill="#fff" transform="translate(14 36)"/></g></g></g></svg>