<svg xmlns="http://www.w3.org/2000/svg" width="90" height="150"><defs><clipPath id="prefix__a"><rect width="90" height="150" rx="8" fill="#fbfbfb"/></clipPath></defs><rect data-name="background" width="90" height="150" rx="8" fill="#f5f5f5"/><path d="M8 0h4v150H8a8 8 0 01-8-8V8a8 8 0 018-8z" fill="#d9d9d9"/><g data-name="Grupo 67608" clip-path="url(#prefix__a)"><g data-name="-----skeleton-list-view" transform="translate(16 141)"><rect data-name="background" width="70" height="24" rx="4" fill="#fec107"/><g data-name="-----skeleton-icon"><rect data-name="//---skeleton-icon" width="16" height="16" rx="3" fill="#fff" transform="translate(4 4)"/></g><g data-name="-----skeleton-text-regular"><rect data-name="//---skeleton-text-regular" width="42" height="5" rx="2.5" fill="#fff" transform="translate(24 13)"/></g><g data-name="-----skeleton-text-regular"><rect data-name="//---skeleton-text-regular" width="27" height="5" rx="2.5" fill="#fff" transform="translate(24 5)"/></g></g><g data-name="-----skeleton-list-view" transform="translate(16 114)"><rect data-name="background" width="70" height="24" rx="4" fill="#fec107"/><g data-name="-----skeleton-icon"><rect data-name="//---skeleton-icon" width="16" height="16" rx="3" fill="#fff" transform="translate(4 4)"/></g><g data-name="-----skeleton-text-regular"><rect data-name="//---skeleton-text-regular" width="42" height="5" rx="2.5" fill="#fff" transform="translate(24 13)"/></g><g data-name="-----skeleton-text-regular"><rect data-name="//---skeleton-text-regular" width="27" height="5" rx="2.5" fill="#fff" transform="translate(24 5)"/></g></g><g data-name="-----skeleton-list-view" transform="translate(16 87)"><rect data-name="background" width="70" height="24" rx="4" fill="#ff9700"/><g data-name="-----skeleton-icon"><rect data-name="//---skeleton-icon" width="16" height="16" rx="3" fill="#fff" transform="translate(4 4)"/></g><g data-name="-----skeleton-text-regular"><rect data-name="//---skeleton-text-regular" width="42" height="5" rx="2.5" fill="#fff" transform="translate(24 13)"/></g><g data-name="-----skeleton-text-regular"><rect data-name="//---skeleton-text-regular" width="27" height="5" rx="2.5" fill="#fff" transform="translate(24 5)"/></g></g><g data-name="-----skeleton-list-view" transform="translate(16 60)"><rect data-name="background" width="70" height="24" rx="4" fill="#ff9700"/><g data-name="-----skeleton-icon"><rect data-name="//---skeleton-icon" width="16" height="16" rx="3" fill="#fff" transform="translate(4 4)"/></g><g data-name="-----skeleton-text-regular"><rect data-name="//---skeleton-text-regular" width="42" height="5" rx="2.5" fill="#fff" transform="translate(24 13)"/></g><g data-name="-----skeleton-text-regular"><rect data-name="//---skeleton-text-regular" width="27" height="5" rx="2.5" fill="#fff" transform="translate(24 5)"/></g></g><g data-name="-----skeleton-list-view" transform="translate(16 33)"><rect data-name="background" width="70" height="24" rx="4" fill="#fe5722"/><g data-name="-----skeleton-icon"><rect data-name="//---skeleton-icon" width="16" height="16" rx="3" fill="#fff" transform="translate(4 4)"/></g><g data-name="-----skeleton-text-regular"><rect data-name="//---skeleton-text-regular" width="42" height="5" rx="2.5" fill="#fff" transform="translate(24 13)"/></g><g data-name="-----skeleton-text-regular"><rect data-name="//---skeleton-text-regular" width="27" height="5" rx="2.5" fill="#fff" transform="translate(24 5)"/></g></g><g data-name="-----skeleton-list-view" transform="translate(16 6)"><rect data-name="background" width="70" height="24" rx="4" fill="#f44236"/><g data-name="-----skeleton-icon"><rect data-name="//---skeleton-icon" width="16" height="16" rx="3" fill="#fff" transform="translate(4 4)"/></g><g data-name="-----skeleton-text-regular"><rect data-name="//---skeleton-text-regular" width="42" height="5" rx="2.5" fill="#fff" transform="translate(24 13)"/></g><g data-name="-----skeleton-text-regular"><rect data-name="//---skeleton-text-regular" width="27" height="5" rx="2.5" fill="#fff" transform="translate(24 5)"/></g></g></g></svg>